<!-- Generated by IcoMoon.io -->
<svg version="1.1" xmlns="http://www.w3.org/2000/svg" width="32" height="32" viewBox="0 0 32 32">
<path d="M25.649 16.849l-7.2 7.2c-0.225 0.225-0.531 0.352-0.85 0.352s-0.625-0.127-0.85-0.352-0.352-0.531-0.352-0.85c0-0.319 0.127-0.625 0.352-0.85l5.151-5.149h-14.7c-0.318 0-0.623-0.126-0.849-0.352s-0.351-0.53-0.351-0.848 0.126-0.623 0.351-0.849c0.225-0.225 0.53-0.351 0.849-0.351h14.7l-5.149-5.152c-0.225-0.225-0.352-0.531-0.352-0.85s0.127-0.625 0.352-0.85c0.225-0.225 0.531-0.352 0.85-0.352s0.625 0.127 0.85 0.352l7.2 7.2c0.112 0.112 0.201 0.244 0.261 0.39s0.092 0.303 0.091 0.461c-0 0.158-0.032 0.315-0.092 0.46s-0.15 0.278-0.262 0.39z"></path>
</svg>
