<svg aria-hidden="true" style="position: absolute; width: 0; height: 0; overflow: hidden;" version="1.1" xmlns="http://www.w3.org/2000/svg" xmlns:xlink="http://www.w3.org/1999/xlink">
<defs>
<symbol id="icon-instagram" viewBox="0 0 32 32">
<path d="M23.2 0.4h-14.4c-2.227 0.002-4.362 0.888-5.937 2.463s-2.461 3.71-2.463 5.937v14.4c0.002 2.227 0.888 4.362 2.463 5.937s3.71 2.46 5.937 2.463h14.4c2.227-0.002 4.362-0.888 5.937-2.463s2.46-3.71 2.463-5.937v-14.4c-0.002-2.227-0.888-4.362-2.463-5.937s-3.71-2.461-5.937-2.463zM16 23.2c-1.424 0-2.816-0.422-4-1.213s-2.107-1.916-2.652-3.231c-0.545-1.316-0.688-2.763-0.41-4.16s0.964-2.68 1.97-3.687c1.007-1.007 2.29-1.693 3.687-1.97s2.844-0.135 4.16 0.41c1.316 0.545 2.44 1.468 3.231 2.652s1.213 2.576 1.213 4c-0.002 1.909-0.761 3.739-2.111 5.089s-3.18 2.109-5.089 2.111zM25 8.8c-0.356 0-0.704-0.106-1-0.303s-0.527-0.479-0.663-0.808c-0.136-0.329-0.172-0.691-0.102-1.040s0.241-0.67 0.493-0.922c0.252-0.252 0.572-0.423 0.922-0.493s0.711-0.034 1.040 0.102c0.329 0.136 0.61 0.367 0.808 0.663s0.303 0.644 0.303 1c0 0.477-0.19 0.935-0.527 1.273s-0.795 0.527-1.273 0.527zM20.8 16c0 0.949-0.281 1.877-0.809 2.667s-1.277 1.405-2.154 1.768c-0.877 0.363-1.842 0.458-2.773 0.273s-1.786-0.642-2.458-1.314c-0.671-0.671-1.128-1.527-1.314-2.458s-0.090-1.896 0.273-2.773 0.979-1.627 1.768-2.154c0.789-0.527 1.717-0.809 2.667-0.809 1.273 0 2.494 0.506 3.394 1.406s1.406 2.121 1.406 3.394z"></path>
</symbol>
<symbol id="icon-linkedin" viewBox="0 0 32 32">
<path d="M0 6c0-3.314 2.686-6 6-6h20c3.314 0 6 2.686 6 6v20c0 3.314-2.686 6-6 6h-20c-3.314 0-6-2.686-6-6v-20zM9.7 26.786v-14.448h-4.832v14.448h4.832zM7.284 10.364c1.684 0 2.734-1.108 2.734-2.496-0.032-1.418-1.050-2.496-2.702-2.496-1.654 0-2.734 1.078-2.734 2.496 0 1.388 1.048 2.496 2.67 2.496h0.032zM17.208 26.786v-8.068c0-0.432 0.032-0.862 0.158-1.172 0.35-0.862 1.146-1.756 2.48-1.756 1.75 0 2.45 1.324 2.45 3.268v7.728h4.832v-8.284c0-4.438-2.384-6.504-5.564-6.504-2.564 0-3.714 1.4-4.356 2.386v-2.046h-4.834c0.064 1.35 0.002 14.366 0 14.45l4.834-0.002z"></path>
</symbol>
<symbol id="icon-pinterest" viewBox="0 0 32 32">
<path d="M16.002 0c-8.838 0-16.002 7.164-16.002 15.998 0 6.554 3.94 12.182 9.578 14.656-0.048-1.118-0.010-2.458 0.276-3.672 0.31-1.3 2.060-8.72 2.060-8.72s-0.51-1.022-0.51-2.532c0-2.372 1.374-4.142 3.084-4.142 1.458 0 2.158 1.094 2.158 2.402 0 1.462-0.932 3.652-1.41 5.678-0.402 1.698 0.85 3.082 2.522 3.082 3.034 0 5.076-3.894 5.076-8.506 0-3.506-2.362-6.132-6.658-6.132-4.854 0-7.876 3.62-7.876 7.662 0 1.394 0.408 2.378 1.054 3.138 0.294 0.35 0.336 0.492 0.228 0.892-0.076 0.294-0.252 1.004-0.326 1.284-0.106 0.406-0.434 0.55-0.8 0.402-2.236-0.914-3.276-3.36-3.276-6.114 0-4.544 3.834-9.994 11.434-9.994 6.11 0 10.132 4.42 10.132 9.164 0 6.278-3.492 10.968-8.636 10.968-1.728 0-3.352-0.936-3.908-1.996 0 0-0.93 3.688-1.126 4.398-0.34 1.232-1.004 2.468-1.61 3.428 1.472 0.436 3 0.656 4.536 0.656 8.836 0 15.998-7.164 15.998-16.002 0-8.834-7.162-15.998-15.998-15.998z"></path>
</symbol>
<symbol id="icon-tick-tock" viewBox="0 0 28 32">
<path d="M24.233 7.353c-0.208-0.105-0.409-0.22-0.606-0.347-0.569-0.37-1.092-0.805-1.556-1.298-1.159-1.303-1.593-2.626-1.753-3.552h0.007c-0.133-0.77-0.078-1.266-0.069-1.266h-5.285v20.069c0 0.27 0 0.537-0.011 0.8 0 0.032-0.004 0.062-0.005 0.098 0 0.014 0 0.028-0.004 0.044v0.011c-0.114 1.463-0.96 2.773-2.258 3.499-0.667 0.372-1.419 0.567-2.187 0.567-2.46 0-4.457-1.973-4.457-4.407 0-2.436 1.996-4.407 4.457-4.407 0.468-0.002 0.93 0.071 1.372 0.213l0.007-5.285c-2.72-0.345-5.461 0.443-7.563 2.172-0.912 0.779-1.676 1.705-2.263 2.741-0.224 0.379-1.065 1.895-1.166 4.359-0.064 1.399 0.363 2.848 0.567 3.445v0.014c0.128 0.352 0.624 1.556 1.435 2.569 0.652 0.814 1.424 1.529 2.288 2.121v-0.012l0.012 0.012c2.558 1.708 5.396 1.596 5.396 1.596 0.491-0.020 2.135 0 4.004-0.869 2.071-0.965 3.25-2.4 3.25-2.4 0.754-0.859 1.353-1.836 1.772-2.892 0.478-1.234 0.638-2.715 0.638-3.307v-10.649c0.064 0.039 0.917 0.594 0.917 0.594s1.23 0.773 3.148 1.278c1.378 0.359 3.232 0.434 3.232 0.434v-5.152c-0.651 0.069-1.97-0.133-3.321-0.795z"></path>
</symbol>
<symbol id="icon-x" viewBox="0 0 39 32">
<path d="M28.894 0h5.609l-12.251 13.554 14.414 18.446h-11.287l-8.839-11.186-10.114 11.186h-5.611l13.106-14.498-13.826-17.502h11.57l7.991 10.226 9.239-10.226z"></path>
</symbol>
<symbol id="icon-youtube" viewBox="0 0 39 32">
<path d="M37.277 6.253c-0.157-0.614-0.458-1.183-0.878-1.658s-0.947-0.844-1.537-1.075c-5.713-2.207-14.807-2.187-15.307-2.187s-9.593-0.020-15.307 2.187c-0.59 0.232-1.117 0.6-1.537 1.075s-0.721 1.044-0.878 1.658c-0.432 1.663-0.945 4.703-0.945 9.747s0.513 8.083 0.945 9.747c0.157 0.615 0.458 1.183 0.878 1.659s0.947 0.844 1.538 1.076c5.473 2.112 14.040 2.185 15.197 2.185h0.22c1.157 0 9.728-0.073 15.197-2.185 0.591-0.232 1.117-0.601 1.537-1.076s0.721-1.044 0.877-1.659c0.432-1.667 0.945-4.703 0.945-9.747s-0.513-8.083-0.945-9.747zM25.259 16.555l-8 5.333c-0.1 0.067-0.217 0.105-0.338 0.111s-0.241-0.021-0.347-0.078c-0.106-0.057-0.195-0.142-0.257-0.245s-0.095-0.222-0.095-0.343v-10.667c-0-0.121 0.033-0.239 0.095-0.343s0.151-0.188 0.257-0.245c0.106-0.057 0.226-0.084 0.347-0.078s0.237 0.044 0.338 0.111l8 5.333c0.092 0.061 0.166 0.143 0.218 0.24s0.079 0.205 0.079 0.315c0 0.11-0.027 0.218-0.079 0.315s-0.127 0.179-0.218 0.24z"></path>
</symbol>
</defs>
</svg>
