<svg width="186" height="24" viewBox="0 0 186 24" fill="none" xmlns="http://www.w3.org/2000/svg">
<path d="M1.29188 23L0.651875 22.36V12.12L0.971875 11.8H8.07588L8.39587 11.48V11.32L8.07588 11H0.971875L0.651875 10.68V8.12L0.971875 7.8H7.11588L7.43588 7.48V7.32L7.11588 7H0.971875L0.651875 6.68V1.24L1.29188 0.599998H9.09988C10.3372 0.599998 11.3292 0.919999 12.0759 1.56C12.8225 2.2 13.1959 3.05333 13.1959 4.12C13.1959 4.73867 13.0359 5.31467 12.7159 5.848C12.4172 6.36 11.8519 6.744 11.0199 7L10.6999 7.32V7.48L11.0199 7.8C13.0465 8.01333 14.6572 8.792 15.8519 10.136C17.0465 11.4587 17.6439 13.2613 17.6439 15.544C17.6439 16.4187 17.4839 17.2933 17.1639 18.168C16.8652 19.0427 16.4172 19.8533 15.8199 20.6C15.2225 21.3253 14.4865 21.912 13.6119 22.36C12.7585 22.7867 11.7772 23 10.6679 23H1.29188ZM26.1131 23.32C24.5131 23.2987 23.1371 23.0853 21.9851 22.68C20.8545 22.2533 19.9798 21.5387 19.3611 20.536C18.7425 19.512 18.4331 18.0933 18.4331 16.28V1.24L19.0731 0.599998H25.3131L25.6331 0.919998V6.68L25.9531 7H26.2731L26.5931 6.68V0.919998L26.9131 0.599998H33.1531L33.7931 1.24V16.28C33.7931 18.0933 33.4838 19.512 32.8651 20.536C32.2465 21.56 31.3611 22.2853 30.2091 22.712C29.0785 23.1173 27.7131 23.32 26.1131 23.32ZM35.3536 23L34.7456 22.36V8.12L35.0656 7.8H41.1456L41.4656 7.48V7.32L41.1456 7H35.0656L34.7456 6.68L34.8736 1.24L35.5136 0.599998H41.4656C42.9803 0.599998 44.399 0.791999 45.7216 1.176C47.0443 1.56 48.1963 2.18933 49.1776 3.064C50.1803 3.91733 50.959 5.06933 51.5136 6.52C52.0683 7.94933 52.3456 9.70933 52.3456 11.8C52.3456 14.5093 51.887 16.6853 50.9696 18.328C50.0736 19.9707 48.8256 21.1653 47.2256 21.912C45.647 22.6373 43.8443 23 41.8176 23H35.3536ZM53.7599 23L53.1519 22.36V8.12L53.4719 7.8H59.5519L59.8719 7.48V7.32L59.5519 7H53.4719L53.1519 6.68L53.2799 1.24L53.9199 0.599998H59.8719C61.3865 0.599998 62.8052 0.791999 64.1279 1.176C65.4505 1.56 66.6025 2.18933 67.5839 3.064C68.5865 3.91733 69.3652 5.06933 69.9199 6.52C70.4745 7.94933 70.7519 9.70933 70.7519 11.8C70.7519 14.5093 70.2932 16.6853 69.3759 18.328C68.4799 19.9707 67.2319 21.1653 65.6319 21.912C64.0532 22.6373 62.2505 23 60.2239 23H53.7599ZM72.1981 23L71.5581 22.36V1.24L72.1981 0.599998H78.5981L78.9181 0.919998V6.68L79.2381 7H79.5581L79.8781 6.68V0.919998L80.1981 0.599998H86.5981L87.2381 1.24V22.36L86.5981 23H80.1981L79.8781 22.68V12.12L79.5581 11.8H79.2381L78.9181 12.12V22.68L78.5981 23H72.1981ZM88.8231 23L88.1831 22.36V21.72L95.3831 0.919998L95.7031 0.599998H96.3431L96.6631 0.919998L103.863 21.72V22.36L103.223 23H96.8231L96.5031 22.68V12.12L96.1831 11.8H95.8631L95.5431 12.12V22.68L95.2231 23H88.8231ZM111.854 23L111.214 22.36V12.12L111.534 11.8H118.638L118.958 11.48V11.32L118.638 11H111.534L111.214 10.68V8.12L111.534 7.8H117.678L117.998 7.48V7.32L117.678 7H111.534L111.214 6.68V1.24L111.854 0.599998H119.662C120.9 0.599998 121.892 0.919999 122.638 1.56C123.385 2.2 123.758 3.05333 123.758 4.12C123.758 4.73867 123.598 5.31467 123.278 5.848C122.98 6.36 122.414 6.744 121.582 7L121.262 7.32V7.48L121.582 7.8C123.609 8.01333 125.22 8.792 126.414 10.136C127.609 11.4587 128.206 13.2613 128.206 15.544C128.206 16.4187 128.046 17.2933 127.726 18.168C127.428 19.0427 126.98 19.8533 126.382 20.6C125.785 21.3253 125.049 21.912 124.174 22.36C123.321 22.7867 122.34 23 121.23 23H111.854ZM140.043 23.32C138.443 23.32 136.95 23.0213 135.563 22.424C134.176 21.8267 132.95 21.0053 131.883 19.96C130.838 18.8933 130.016 17.6667 129.419 16.28C128.822 14.8933 128.523 13.4 128.523 11.8C128.523 10.2 128.822 8.70667 129.419 7.32C130.016 5.93333 130.838 4.71733 131.883 3.672C132.95 2.60533 134.176 1.77333 135.563 1.176C136.95 0.578665 138.443 0.279999 140.043 0.279999C141.643 0.279999 143.136 0.578665 144.523 1.176C145.91 1.77333 147.126 2.60533 148.171 3.672C149.238 4.71733 150.07 5.93333 150.667 7.32C151.264 8.70667 151.563 10.2 151.563 11.8C151.563 13.4 151.264 14.8933 150.667 16.28C150.07 17.6667 149.238 18.8933 148.171 19.96C147.126 21.0053 145.91 21.8267 144.523 22.424C143.136 23.0213 141.643 23.32 140.043 23.32ZM157.328 23L157.008 22.68L149.808 1.88V1.24L150.448 0.599998H156.848L157.168 0.919998V6.68L157.488 7H157.808L158.128 6.68V0.919998L158.448 0.599998H165.168L165.488 0.919998V6.68L165.808 7H166.128L166.448 6.68V0.919998L166.768 0.599998H173.168L173.808 1.24V1.88L166.608 22.68L166.288 23H165.648L165.328 22.68L162.128 13.432L161.808 13.272L161.488 13.432L158.288 22.68L157.968 23H157.328ZM175.417 23L174.777 22.36V1.24L175.417 0.599998H181.497L182.137 1.24V11.48L182.457 11.8H184.697L185.337 12.504V22.36L184.697 23H175.417Z" fill="#F5EFE6"/>
</svg>
